<svg xmlns="http://www.w3.org/2000/svg" viewBox="0 0 167.58 117.5"><defs><style>.cls-1{fill:#637582;}.cls-2{fill:#455760;}.cls-3{fill:#94a5af;}.cls-4{fill:#ecebeb;}.cls-5{fill:#3e3127;}.cls-6{fill:#fff;}.cls-10,.cls-11,.cls-7,.cls-8,.cls-9{fill:none;stroke-miterlimit:10;}.cls-7,.cls-8{stroke:#3e3127;}.cls-7{stroke-width:5px;}.cls-10,.cls-11,.cls-8,.cls-9{stroke-width:3px;}.cls-9{stroke:#ffc754;}.cls-10,.cls-11,.cls-9{stroke-linecap:round;}.cls-10{stroke:#a2fce2;}.cls-11{stroke:#fff;}</style></defs><title>Asset 35</title><g id="Layer_2" data-name="Layer 2"><g id="Layer_1-2" data-name="Layer 1"><path class="cls-1" d="M13.37.93H158.75a8.51,8.51,0,0,1,8.51,8.51v95.22a8.51,8.51,0,0,1-8.51,8.51H6.26a1.4,1.4,0,0,1-1.4-1.4V9.44A8.51,8.51,0,0,1,13.37.93Z" transform="translate(0.1 -0.15) rotate(0.1)"/><path class="cls-2" d="M165.63,15.78l-.14,88.47a11.89,11.89,0,0,1-11.92,11.87L74.2,116c26-30.53,38.27-85.38,42.93-112.17l36.63.06A11.87,11.87,0,0,1,165.63,15.78Z"/><rect class="cls-3" x="4.27" y="18.52" width="5.12" height="93.95" transform="translate(0.11 -0.01) rotate(0.1)"/><path class="cls-4" d="M164.51,9.59l0,9.71L2.08,19l0-9.69A5.39,5.39,0,0,1,7.7,4.19l151.23.26A5.38,5.38,0,0,1,164.51,9.59Z"/><circle class="cls-5" cx="15.07" cy="11.26" r="1.63"/><circle class="cls-5" cx="21.76" cy="11.27" r="1.63"/><circle class="cls-5" cx="28.45" cy="11.28" r="1.63"/><polygon class="cls-6" points="100.31 4.55 91.57 19.38 81.59 19.37 90.32 4.54 100.31 4.55"/><polygon class="cls-6" points="123.67 4.59 114.94 19.42 104.93 19.41 113.67 4.58 123.67 4.59"/><rect class="cls-7" x="2.58" y="2.63" width="162.41" height="112.24" rx="6" transform="translate(0.1 -0.14) rotate(0.1)"/><line class="cls-8" x1="2.65" y1="18.65" x2="165.91" y2="18.92"/><line class="cls-9" x1="20.5" y1="32.24" x2="92.58" y2="32.36"/><line class="cls-10" x1="20.48" y1="44.55" x2="60.81" y2="44.62"/><line class="cls-11" x1="20.46" y1="56.86" x2="68.2" y2="56.94"/><line class="cls-11" x1="72.98" y1="44.64" x2="78.4" y2="44.65"/><line class="cls-9" x1="79.3" y1="56.96" x2="90.01" y2="56.98"/></g></g></svg>