<?xml version="1.0" encoding="utf-8"?>
<!-- Generator: Adobe Illustrator 24.0.3, SVG Export Plug-In . SVG Version: 6.00 Build 0)  -->
<svg version="1.0" xmlns="http://www.w3.org/2000/svg" xmlns:xlink="http://www.w3.org/1999/xlink" x="0px" y="0px"
	 viewBox="0 0 788.1 568" style="enable-background:new 0 0 788.1 568;" xml:space="preserve">
<style type="text/css">
	.st0{fill:#FFFFFF;}
	.st1{fill:#1A52FF;stroke:#000000;stroke-width:2.5311;stroke-miterlimit:10;}
</style>
<g id="Layer_1">
</g>
<g id="Layer_13">
	<g>
		<path class="st0" d="M746.9,520.2H36.2c-4.4,0-8-3.6-8-8v-4.3c0-4.4,3.6-8,8-8h710.7c4.4,0,8,3.6,8,8v4.3
			C755,516.6,751.4,520.2,746.9,520.2z"/>
		<path d="M745.4,521.5H37.7c-5.9,0-10.7-5.1-10.7-11.4s4.8-11.4,10.7-11.4h707.7c5.9,0,10.7,5.1,10.7,11.4S751.3,521.5,745.4,521.5
			z M37.7,501.1c-4.6,0-8.3,4-8.3,8.9c0,4.9,3.7,8.9,8.3,8.9h707.7c4.6,0,8.3-4,8.3-8.9c0-4.9-3.7-8.9-8.3-8.9H37.7z"/>
	</g>
	<g>
		<path d="M739.6,386.2c0,9-7.3,16.3-16.2,16.3c-9,0-16.3-7.3-16.3-16.3c0-9,7.3-16.3,16.3-16.3
			C732.3,369.9,739.6,377.2,739.6,386.2z M695.4,327.2l-6.2,6.2l-4-4l6.2-6.2L695.4,327.2z M671.8,337.4l0.1,0.9
			c0.6,9-2.5,17.8-8.4,24.4L616,315.3c6.7-5.9,15.4-9,24.4-8.4l0.9,0.1l25-25l30.5,30.5L671.8,337.4z M649.3,476.9
			c1-6.6,6.6-11.8,13.5-11.8c6.9,0,12.6,5.1,13.5,11.8H649.3L649.3,476.9z M721.4,480.8v16.8H604.2v-16.8h9.2H721.4z M630.8,476.9
			h-13.5v-2.5h13.5V476.9z M723.3,406.3c11.1,0,20.1-9,20.1-20.2c0-11.1-9-20.1-20.1-20.1c-2.5,0-4.9,0.5-7.1,1.3l-20-35.4l4.7-4.7
			l-6.7-6.7l8.1-8.1l-36-36L639.8,303c-10.5-0.4-20.6,3.5-28,10.9l-1.4,1.4l53,53l1.4-1.4c7.4-7.4,11.3-17.5,10.9-28l6.7-6.7
			l6.7,6.7l4.1-4.1l19.4,34.3c-5.7,3.6-9.5,9.9-9.5,17.1c0,8.2,4.9,15.3,12,18.4l-44.4,58.6c-2.4-1.2-5.1-1.9-8-1.9
			c-9,0-16.5,6.9-17.5,15.7h-10.6v-6.3h-21.2v6.3h-13.1v24.6h124.9v-24.6h-45c-0.5-4.6-2.8-8.8-6.3-11.6l45.1-59.4
			C720.5,406.2,721.9,406.3,723.3,406.3L723.3,406.3z"/>
	</g>
</g>
<g id="Layer_6">
	<g>
		<path class="st0" d="M569.9,250.2c0,0-8.9-41.8-9.1-50.7c-0.2-8.9-1.3-26.9,2.4-27.7c3.7-0.9,41.8,1.1,41.8,1.1s7.8,3,4.3,20.6
			s-4.5,15.4-3.2,23.2s1.9,34.9-12.6,50.7l-22.1-9.5L569.9,250.2z"/>
		<path d="M593.5,268.5c-0.2,0-0.3,0-0.5-0.1l-22.1-9.5c-0.4-0.2-0.7-0.5-0.7-0.9l-1.5-7.6c-0.4-1.8-8.9-42-9.1-50.9
			c0-1.1-0.1-2.3-0.1-3.5c-0.5-16.6-0.1-24.6,3.5-25.4c3.7-0.9,38.2,0.9,42.1,1.1c0.1,0,0.3,0,0.4,0.1c0.4,0.1,8.7,3.6,5.1,22
			c-1.2,5.9-2,9.5-2.7,12.2c-1.2,5-1.4,5.6-0.6,10.6c1.4,8.3,2,35.6-12.9,51.7C594.2,268.4,593.8,268.5,593.5,268.5z M572.5,256.8
			l20.6,8.9c13.8-15.8,12.7-42.5,11.6-48.9c-0.9-5.4-0.7-6.4,0.6-11.6c0.6-2.6,1.5-6.2,2.7-12.1c2.9-14.7-2.4-18.5-3.4-19.1
			c-15.3-0.8-38.6-1.7-41.2-1.1c-2.2,0.9-1.7,16.9-1.5,22.9c0,1.3,0.1,2.5,0.1,3.6c0.2,8.7,9,50,9.1,50.4c0,0,0,0,0,0L572.5,256.8z"
			/>
	</g>
</g>
<g id="Layer_4">
	<g>
		<path class="st1" d="M568.3,245.5c0,0,1.4,0.1,0.7,2.8c-0.7,2.7,10.6,13.7,26.7,8.9l6.6-5.5c0,0-19.1,73.7-19.9,77.4
			c-0.7,3.7-5.6,18.9-29.2,23.8c-23.6,4.9-83,15-83,15l-26.5,129.4H277.6c0,0-28-6.4-6.6-55.2s39.2-118.4,77.3-117.4
			c2,2.6,16.8,17.8,41.2,17.3s41.5,1.5,39.9-23.3c18.7-4.8,115.4-14.8,115.4-14.8L568.3,245.5z"/>
		<path class="st1" d="M443.8,498.6H277.6c-0.1,0-0.2,0-0.3,0c-0.3-0.1-8.2-2-12.6-10.8c-5.3-10.6-3.6-26.1,5.1-46.1
			c4.2-9.5,8.3-20.1,12.3-30.3c17-43.6,34.6-87.4,66.2-86.6c0.4,0,0.8-0.2,1.1,0.1c3.5,4.5,18.4,16.4,40.1,15.9c2.1,0,4.1-0.1,6-0.1
			c13.2-0.2,23.7-0.3,28.9-6c3-3.3,4.8-8,4.3-15.4c0-0.6,0.7-1.1,1.3-1.2c17.9-4.6,104.1-14.3,113.9-15.3l23.3-57.7
			c0.2-0.5,0.7-0.8,1.3-0.8c0.5,0,1.1,0.3,1.5,1c0.6,0.8,0.6,2,0.2,3.5c0,0.3,0.8,2,3.5,4c2.2,1.6,10.1,6.7,21.4,3.4l6.4-5.3
			c0.4-0.3,1-0.4,1.5-0.1c0.5,0.3,0.7,0.9,0.5,1.4c-0.2,0.7-19.1,73.7-19.9,77.4c-0.4,2-4.6,19.5-30.2,24.8
			c-21.8,4.5-74.8,13.6-82.2,14.8L445,497.6C444.9,498.2,444.4,498.6,443.8,498.6z M544.7,303.9L544.7,303.9L544.7,303.9z"/>
	</g>
	<path d="M95.7,497.7H58.4l-4.6-34.5h36.5h0h0h10L95.7,497.7z M57.3,443l6-1.5l4.8,19.2h-6.3L57.3,443z M74.5,448.4h6.2v12.3h-6.2
		V448.4z M74.5,433.6h6.2v6.2h-6.2V433.6z M73.3,442.2h8.6v3.7h-8.6V442.2z M92.2,442.9c0.5,0.3,1.1,0.6,1.7,0.9l-4.5,16.9h-1.9
		L92.2,442.9z M97.6,444.5c0.2,0,0.3,0,0.5,0l-4.3,16.2h-1.9l4.4-16.3C96.7,444.5,97.2,444.5,97.6,444.5L97.6,444.5z M97.4,435.3
		l1,6.7c-1.8,0.2-3.7-0.3-5.2-1.4L97.4,435.3z M59.4,433.6l1.5,6l-2.4,0.6l-1.5-6L59.4,433.6z M102.6,461.1
		c-0.2-0.3-0.6-0.4-0.9-0.4h-5.3l4.7-17.4c0,0,0,0,0,0c0-0.2,0.1-0.3,0-0.5v0l-1.6-10.6c-0.1-0.5-0.4-0.9-0.9-1c0,0,0,0-0.1,0
		c-0.5-0.1-0.9,0.1-1.2,0.4l-6.7,8.4c-0.1,0.1-0.2,0.3-0.2,0.4c0,0,0,0,0,0l-5.4,20.3h-1.7v-12.3c0.7,0,1.2-0.6,1.2-1.2V441
		c0-0.7-0.6-1.2-1.2-1.2v-7.4c0-0.7-0.6-1.2-1.2-1.2h-8.6c-0.7,0-1.2,0.6-1.2,1.2v7.4c-0.7,0-1.2,0.6-1.2,1.2v6.2
		c0,0.7,0.6,1.2,1.2,1.2v12.3h-1.5l-5.2-21c-0.2-0.7-0.8-1.1-1.5-0.9l-0.6,0.2l-1.5-6c-0.3-1.3-1.7-2.1-3-1.8l-2.4,0.6
		c-0.6,0.2-1.2,0.6-1.5,1.1c-0.3,0.6-0.4,1.2-0.3,1.9l1.5,6l-0.6,0.1h0h0l-1.2,0.3c-2,0.5-3.2,2.5-2.7,4.5l3,12
		c0.1,0.6,0.6,0.9,1.2,0.9c0.1,0,0.2,0,0.3,0c0.7-0.2,1.1-0.8,0.9-1.5l-3-12c-0.2-0.7,0.2-1.3,0.9-1.5h0l4.3,17.1h-6.8
		c-0.4,0-0.7,0.2-0.9,0.4c-0.2,0.3-0.3,0.6-0.3,1l4.9,37c0.1,0.6,0.6,1.1,1.2,1.1h39.4c0.6,0,1.1-0.5,1.2-1.1l4.9-37
		C102.9,461.7,102.8,461.4,102.6,461.1L102.6,461.1z"/>
	<path d="M231.6,221.4c0,3.2-4.9,3.2-4.9,0C226.7,218.1,231.6,218.1,231.6,221.4"/>
	<path d="M238.9,221.4c0,3.2-4.9,3.2-4.9,0C234,218.1,238.9,218.1,238.9,221.4"/>
	<path d="M246.2,221.4c0,3.2-4.9,3.2-4.9,0C241.3,218.1,246.2,218.1,246.2,221.4"/>
	<path d="M162.9,212.8h48v7.3h-53.5v-1.8C157.4,215.3,159.8,212.8,162.9,212.8L162.9,212.8z M252.3,218.4v11.5h-38.9v-17h33.4
		C249.8,212.8,252.3,215.3,252.3,218.4L252.3,218.4z M246.8,293.2h-83.9c-3,0-5.5-2.5-5.5-5.5v-55.3h94.9v55.3
		C252.3,290.7,249.8,293.2,246.8,293.2L246.8,293.2z M210.9,229.9h-53.5v-7.3h53.5V229.9z M162.9,295.6h83.9c4.4,0,7.9-3.6,7.9-7.9
		v-69.3c0-4.4-3.6-7.9-7.9-7.9h-83.9c-4.4,0-7.9,3.6-7.9,7.9v69.3C154.9,292,158.5,295.6,162.9,295.6z"/>
	<path d="M168.3,203.1c0.7,0,1.2,0.5,1.2,1.2s-0.5,1.2-1.2,1.2s-1.2-0.5-1.2-1.2S167.6,203.1,168.3,203.1z M168.3,208
		c2,0,3.6-1.6,3.6-3.6c0-2-1.6-3.6-3.6-3.6c-2,0-3.6,1.6-3.6,3.6C164.7,206.3,166.3,208,168.3,208z"/>
	<path d="M246.2,198.2c2,0,3.6,1.6,3.6,3.6c0,2-1.6,3.6-3.6,3.6s-3.6-1.6-3.6-3.6C242.5,199.9,244.2,198.2,246.2,198.2z M246.2,208
		c3.4,0,6.1-2.7,6.1-6.1c0-3.4-2.7-6.1-6.1-6.1c-3.4,0-6.1,2.7-6.1,6.1C240.1,205.2,242.8,208,246.2,208z"/>
	<path d="M153.7,211c0,2.4-3.7,2.4-3.7,0C150.1,208.6,153.7,208.6,153.7,211"/>
	<path d="M187.8,201.3c0,2.4-3.7,2.4-3.7,0C184.1,198.8,187.8,198.8,187.8,201.3"/>
	<path d="M213.3,206.1c0,2.4-3.6,2.4-3.6,0S213.3,203.7,213.3,206.1"/>
	<path d="M235.2,201.3c0,2.4-3.7,2.4-3.7,0C231.6,198.8,235.2,198.8,235.2,201.3"/>
	<path d="M243.8,239.6h-77.9c-0.7,0-1.2,0.5-1.2,1.2v43.8c0,0.7,0.5,1.2,1.2,1.2h77.9c0.7,0,1.2-0.5,1.2-1.2v-43.8
		C245,240.2,244.4,239.6,243.8,239.6z"/>
	<path d="M204.8,279.3c-0.9,0-1.5-0.7-1.5-1.5c0-0.9,0.7-1.5,1.5-1.5c0.9,0,1.5,0.7,1.5,1.5C206.4,278.6,205.7,279.3,204.8,279.3z
		 M204.8,273.8c-2.2,0-4,1.8-4,4c0,2.2,1.8,4,4,4c2.2,0,4-1.8,4-4C208.8,275.5,207,273.8,204.8,273.8z"/>
</g>
<g id="Layer_21">
	<g>
		<path d="M288.3,456.4c-0.5,0-0.9-0.3-1.1-0.7c-0.3-0.6,0-1.4,0.6-1.7c9.7-4.7,30.4-3.8,50.3-3c7.7,0.3,14.9,0.6,21.3,0.6
			c0,0,0,0,0,0c0.7,0,1.3,0.6,1.3,1.3c0,0.7-0.6,1.3-1.3,1.3c-6.4,0-13.7-0.3-21.4-0.6c-18.8-0.8-40-1.7-49.1,2.7
			C288.6,456.4,288.4,456.4,288.3,456.4z"/>
	</g>
	<g>
		<path d="M317.1,451.6c-0.2,0-0.3,0-0.5-0.1c-0.6-0.3-1-1-0.7-1.6c1.3-3.3,2.9-7.5,4.5-11.8c7.6-20.2,18-47.9,26.9-55.9
			c0.5-0.5,1.3-0.4,1.8,0.1c0.5,0.5,0.4,1.3-0.1,1.8c-8.4,7.6-19.1,36.1-26.2,55c-1.7,4.4-3.2,8.6-4.5,11.9
			C318.1,451.3,317.6,451.6,317.1,451.6z"/>
	</g>
	<g>
		<path d="M322.4,499.9c-0.6,0-1.2-0.5-1.3-1.2c-0.1-0.7,0.5-1.3,1.1-1.4c18.1-1.6,35.8-11.5,35.9-11.6c0.6-0.3,1.4-0.1,1.7,0.5
			c0.3,0.6,0.1,1.4-0.5,1.7c-0.7,0.4-18.3,10.3-37,11.9C322.5,499.9,322.5,499.9,322.4,499.9z"/>
	</g>
</g>
<g id="Layer_20">
	<g>
		<path class="st0" d="M279.5,445c-0.4,0-0.7-0.1-1-0.2c-1.3-0.6-1.8-2.1-1.3-3.4c0.2-0.4,18.8-41.1,32.3-72.2
			c14-32.1,30.6-38.1,31.3-38.3c1.3-0.4,2.8,0.3,3.2,1.6c0.4,1.3-0.3,2.7-1.6,3.2c-0.2,0.1-15.4,5.8-28.3,35.6
			c-13.5,31.1-32.1,71.8-32.3,72.3C281.4,444.5,280.5,445,279.5,445z"/>
	</g>
</g>
<g id="Layer_17">
	<g>
		<path class="st0" d="M393.3,465.6c0,0,20.9-12.2,22.6-15.3c1.7-3.1,15-8.1,18.8-7.5c3.8,0.5-3.3-11.5-16-5.1
			c-12.7,6.4-34,15.3-34,15.3l2.4,14.8L393.3,465.6z"/>
		<path d="M387.1,469c-0.2,0-0.4-0.1-0.6-0.2c-0.3-0.2-0.5-0.5-0.6-0.9l-2.4-14.8c-0.1-0.6,0.2-1.1,0.8-1.4
			c0.2-0.1,21.4-8.9,33.9-15.3c7.4-3.8,13.5-1.7,16.7,1.5c1.8,1.8,2.5,3.7,1.9,4.9c-0.4,0.8-1.2,1.2-2.2,1
			c-3.6-0.5-16.2,4.4-17.5,6.9c-1.8,3.3-19.5,13.7-23,15.8c-0.1,0-0.1,0.1-0.2,0.1l-6.2,2.2C387.3,469,387.2,469,387.1,469z
			 M386.1,453.8l2,12.3l4.7-1.6c8.5-5,20.9-12.8,22-14.8c2-3.7,14.7-8.2,19.4-8.2c0,0,0.1,0,0.1,0c-0.3-0.7-1.2-1.8-2.7-2.8
			c-2-1.3-6.2-2.9-12.3,0.1C408.1,444.4,390.3,452,386.1,453.8z M393.3,465.6L393.3,465.6L393.3,465.6z"/>
	</g>
</g>
<g id="Layer_5">
	<g>
		<g>
			<path class="st0" d="M358.9,486.8c-0.6,0-1.1-0.4-1.2-0.9c-0.3-0.9-6.4-21.8,0.2-31c1.9-2.7,4.7-4.2,8.3-4.4c0,0,0,0,0.1,0
				c0.4,0,0.8,0.2,1,0.5c0,0,0.5,0.7,1.4,0.7c0.9,0,2.8-0.7,5.4-5.1c0.5-0.8,1.1-1.9,1.8-3.2c5.7-10.2,19.2-34.2,37.8-34.2
				c5.8,0,11.7,2.3,17.4,6.9c0.3,0.3,0.5,0.7,0.5,1.1c-0.1,1.4-1.3,4.2-5.1,4.2c-1.5,0-3.5-0.5-5.8-1.1c-2.5-0.6-5.3-1.3-7.3-1.3
				c-1.2,0-1.7,0.2-2,0.4c-1.3,1-2.6,2-3.5,2.9c2,0.4,4.8,1.2,7.7,2.5c6.9,3.1,10.2,7.7,9.6,13.3c0,0.1,0,0.2-0.1,0.3
				c-0.2,0.7-1.2,1.8-3,1.8c-1.2,0-2.6-0.5-4.2-1.4c-3.4-1.9-14.7-6.4-21.4-6.4c-1.1,0-2,0.1-2.7,0.4c-0.1,0.5-0.2,0.9-0.2,1.2
				c0.2,0,0.6,0.1,1,0.1c5.2,0.6,21,2.4,27.6,9.2c0,0,0.1,0.1,0.1,0.1c1,1.3,0.7,2.3,0.4,2.8c-0.9,1.8-3.7,2.3-5,2.3
				c-0.2,0-0.3,0-0.5,0c-0.6,0-2.3-0.5-5.7-1.4c-6.1-1.7-16.3-4.5-20.8-4.5c-1.1,0-1.4,0.2-1.4,0.2c-0.8,0.7-0.8,1-0.8,1
				c0.1,0.1,0.7,0.5,1.6,0.6c23.4,2.1,24,4.5,24.3,5.4c0.2,0.7,0.1,1.4-0.4,2c-1,1.3-3.3,1.8-8.8,1.8c-1.6,0-3.3,0-5.2-0.1l-0.2,0
				c-0.8,0-1.6,0-2.4-0.1c-0.9,0-1.8-0.1-2.6-0.1c-2.1,0-3.3,0.3-3.9,1c-0.8,0.9-1.2,2.7-1.1,5.6c0,1,0.1,2,0.2,3
				c0.8,8.8,1.9,20.9-31.3,24C358.9,486.8,358.9,486.8,358.9,486.8z"/>
		</g>
		<g>
			<path d="M413.8,410.5c5.2,0,10.7,1.9,16.7,6.6c0,0-0.2,3-3.9,3c-2.8,0-9.1-2.4-13.1-2.4c-1.1,0-2.1,0.2-2.7,0.6
				c-3,2.1-5.4,4.7-5.4,4.7s19.9,2.6,18.6,14.8c0,0-0.4,1-1.8,1c-0.8,0-1.9-0.3-3.6-1.2c-3.7-2.1-15.2-6.6-22-6.6
				c-1.5,0-2.8,0.2-3.7,0.7c0,0-1,3,0.2,3.3c1.1,0.3,21.1,1.4,28.5,9c1.5,2-1.5,3.1-3.6,3.1c-0.1,0-0.3,0-0.4,0
				c-1.8-0.1-19.9-5.9-26.6-5.9c-1,0-1.8,0.1-2.2,0.5c-2.9,2.4-0.3,3.7,1.4,3.9c1.8,0.2,22.5,2.1,23.1,4.5c0.5,1.8-3,2.2-8,2.2
				c-1.7,0-3.5,0-5.4-0.1c-1.9,0-3.6-0.2-5-0.2c-4.3,0-6.5,1-6.3,7.9c0.3,9.2,5.9,22.3-29.9,25.7c0,0-9.8-32.9,7.3-33.7
				c0,0,0.9,1.2,2.5,1.2c1.6,0,3.8-1.2,6.5-5.7C379.6,440,393.6,410.5,413.8,410.5 M413.8,408c-19.4,0-33.1,24.4-38.9,34.9
				c-0.7,1.3-1.3,2.4-1.8,3.2c-2.6,4.4-4.2,4.5-4.4,4.5c-0.2,0-0.4-0.1-0.4-0.2c-0.5-0.7-1.1-1-2-1c-0.1,0-0.1,0-0.2,0
				c-3.9,0.2-7.1,1.9-9.3,4.9c-3,4.2-3.9,10.9-2.8,20c0.8,6.5,2.4,11.8,2.4,12c0.3,1.1,1.3,1.8,2.4,1.8c0.1,0,0.2,0,0.2,0
				c15.1-1.4,24.3-4.6,29-10c4.4-5,3.8-10.8,3.4-15.4c-0.1-1-0.2-2-0.2-3c-0.1-3.3,0.4-4.3,0.7-4.7c0.4-0.4,1.3-0.6,3-0.6
				c0.8,0,1.6,0,2.5,0.1c0.8,0,1.6,0.1,2.4,0.1l0.2,0c1.8,0,3.6,0.1,5.2,0.1c5.3,0,8.4-0.4,9.8-2.3c0.7-0.9,0.9-2,0.6-3.1
				c0,0,0,0,0,0c0.8,0.2,1.2,0.3,1.5,0.3c0.2,0,0.4,0,0.6,0c1.7,0,5-0.6,6.2-3c0.7-1.3,0.5-2.9-0.6-4.2c-0.1-0.1-0.1-0.2-0.2-0.2
				c-0.3-0.3-0.6-0.6-1-0.9c2.1-0.1,3.5-1.3,4-2.6c0.1-0.2,0.1-0.4,0.1-0.6c1.1-10.3-9.4-14.7-15.9-16.5c0.5-0.4,1-0.8,1.5-1.2l0,0
				c0,0,0.3-0.2,1.2-0.2c1.9,0,4.6,0.7,7,1.3c2.4,0.6,4.5,1.1,6.1,1.1c4.4,0,6.2-3.2,6.4-5.3c0.1-0.8-0.3-1.6-1-2.2
				C426,410.4,419.9,408,413.8,408L413.8,408z M389.9,444.1C389.9,444.1,389.9,444.1,389.9,444.1S389.9,444.1,389.9,444.1
				L389.9,444.1z"/>
		</g>
	</g>
</g>
<g id="Layer_3">
	<g>
		<path class="st0" d="M348.2,324.7c0,0,24.5,4,29.9-0.8c5.4-4.8,11.3-23.4,8.2-28.2s-30.5-11.9-30.5-11.9l-2.1-41.6l47.3-22.6
			l18.6,6.5c0,0,18.2,25.1,19.9,38.5c1.7,13.4-4.2,32.4-23.2,32.2c0,0-5.6,24.9-4.4,24.9c1.3,0,17.5-2.9,17.5-2.9s3.6,18.2-9.4,20.5
			C407,341.5,365.1,348.8,348.2,324.7z"/>
		<path d="M391.8,343.2c-21.4,0-36.4-5.9-44.7-17.7c-0.3-0.4-0.3-1,0-1.4s0.8-0.7,1.3-0.6c6.6,1.1,24.8,3.1,28.9-0.5
			c5.2-4.6,10.6-22.5,7.9-26.6c-2.1-3.2-19.4-8.7-29.8-11.4c-0.5-0.1-0.9-0.6-0.9-1.2l-2.1-41.6c0-0.5,0.3-1,0.7-1.2l47.3-22.6
			c0.3-0.1,0.6-0.2,1-0.1l18.6,6.5c0.2,0.1,0.5,0.2,0.6,0.5c0.8,1,18.4,25.5,20.1,39.1c0.9,7.4-0.4,18.8-7.1,26.3
			c-4.2,4.7-9.7,7.1-16.4,7.3c-2.1,9.2-4,19-4.3,22.2c3-0.4,11-1.8,16.2-2.8c0.7-0.1,1.3,0.3,1.5,1c0.1,0.4,2,10.5-2.4,17
			c-1.9,2.7-4.5,4.4-8,5C409.7,342.3,400.3,343.2,391.8,343.2z M351.1,326.5c11.7,13.6,34.7,17.5,68.6,11.5c2.7-0.5,4.9-1.8,6.3-3.9
			c3-4.4,2.6-11.1,2.2-13.8c-4.3,0.8-15.3,2.7-16.5,2.7c-0.4,0-0.8-0.2-1.1-0.5c-0.5-0.6-1.3-1.6,4.2-25.9c0.1-0.6,0.6-1,1.2-1
			c6.4,0.1,11.6-2.1,15.5-6.5c6.2-6.9,7.3-17.4,6.5-24.3c-1.5-12.1-17.3-34.6-19.4-37.6l-17.7-6.2l-46,22l2,39.8
			c5.3,1.4,27.3,7.5,30.4,12.2c3.6,5.4-2.6,24.8-8.4,29.9C374.3,329,358.2,327.4,351.1,326.5z"/>
	</g>
</g>
<g id="Layer_2">
	<g>
		<path d="M386.7,304.5c0,0-8.6-10.8-21-10.5c-12.4,0.4-29.3-33.6-19.1-60.8c9.3-24.7,30.7-28.3,46.6-29.3
			c15.9-1.1,28.3-0.4,30.7-3.9c2.5-3.5,10.6,21.2,0,26.9c-10.6,5.7-46.3,14.5-51.2,13.1c-4.9-1.4,2.5,9.7,2,12.1
			c-1.1,5.5,10.1,26,10.1,26s-14.6-15.5-18.5-11c-3.9,4.6-6,15.1,2.5,17.6c8.5,2.5,11.8-1.2,11.8-1.2l9.1,9.1L386.7,304.5z"/>
		<path d="M430.3,211c-0.4-3.6-1.7-8.3-3.4-10.9c-0.6-0.9-1.2-1.5-1.9-1.7c-0.8-0.2-1.6,0.1-2.1,0.8c-1.5,2.1-9.2,2.4-18.2,2.8
			c-3.5,0.1-7.4,0.3-11.6,0.6c-17.4,1.2-38.5,5.6-47.7,30.1c-1,2.7-1.8,5.4-2.3,8.2c-3.1,16.7,2,34.6,9.6,45.3c4.2,5.9,8.8,9,13,8.9
			c11.6-0.4,19.9,9.9,20,10c0.2,0.3,0.6,0.5,1,0.5c0.1,0,0.2,0,0.3,0c0.5-0.1,0.8-0.5,1-0.9L391,293c0.1-0.4,0-0.9-0.3-1.2l-9.1-9.1
			c-0.2-0.2-0.6-0.4-0.9-0.4c-0.3,0-0.7,0.2-0.9,0.4c-0.1,0.1-3,3.1-10.5,0.8c-2.4-0.7-4-2.2-4.6-4.4c-1.1-3.7,0.5-8.5,2.8-11.1
			c0.2-0.2,0.4-0.4,0.9-0.4c3.5-0.1,11.5,6.9,15.7,11.4c0.4,0.5,1.2,0.5,1.7,0.2c0.5-0.4,0.7-1.1,0.4-1.6
			c-4.3-7.8-10.7-21.5-10-25.2c0.2-1.2-0.5-3-1.8-6c-0.6-1.5-1.8-4.1-1.9-5.2c0,0,0.1,0,0.1,0c5.5,1.6,41.6-7.5,52.2-13.2
			C429.3,225.5,431.4,219.3,430.3,211z M373.1,238.7c-1.5-0.4-2.4,0.1-2.8,0.5c-1.3,1.4-0.2,4,1.6,8.1c0.7,1.5,1.7,3.9,1.6,4.5
			c-0.8,3.8,3.4,13.4,6.7,20.1c-3.8-3.3-8.7-6.9-12-6.9c-1.2,0-2.1,0.5-2.8,1.3c-2.6,3.1-4.6,8.9-3.2,13.5c0.9,3,3.1,5.2,6.3,6.1
			c6.6,2,10.4,0.4,12.1-0.7l7.8,7.8l-2.4,8.8c-3.1-3.1-10.3-9.2-19.8-9.2h-0.8c-3.2,0-7.1-2.8-10.7-7.8c-7.8-11-12.8-29.9-8.4-46.7
			c0.4-1.5,0.9-3,1.4-4.5c8.6-23,27.9-27.3,45.5-28.5c4.1-0.3,8-0.4,11.5-0.6c10.3-0.4,17.2-0.7,19.8-3.4c0.2,0.2,0.4,0.6,0.6,1
			c1.3,2.5,2.9,7.9,2.8,13.3c-0.1,3.6-0.9,8.3-4.6,10.3C412.9,231.3,377.6,240,373.1,238.7z"/>
	</g>
</g>
<g id="Layer_19">
	<path class="st0" d="M425.7,202.7c-0.2,0.4,0.8,1.2,0.5,1.6c-0.3,0.3-0.4,1-0.7,1.4c-1.2,1.4-3.8,3.3-6.8,3.8
		c-9.4,1.8-16.5-0.1-28,1.9c-11.8,2.1-27.3,8-36,19.2c-4.1,5.3-5.7,9-6.8,11.8c-0.4,1.1-1.3,2.5-1.8,3c-0.5,0.5-0.5,0.3-1,0.7
		c0.5-2.9,1-6.5,2-9.3c8.9-25.7,29.3-30.3,46.1-31.5c4-0.3,7.8-0.5,11.2-0.6c8.7-0.4,16.2-0.7,17.6-2.9c0.5-0.8,1.2-1.1,2-0.9
		C424.5,201.1,425.1,201.8,425.7,202.7z"/>
</g>
<g id="Layer_8">
	<g>
		<path class="st0" d="M129.6,403c7.2,4.1,12.3,30.3,0,38.4h106.6V403H129.6"/>
		<path d="M236.2,442.9H129.6c-0.7,0-1.3-0.4-1.5-1.1c-0.2-0.6,0.1-1.3,0.6-1.7c4.5-3,7-9.3,6.7-17.4c-0.3-8.9-3.7-16.7-6.7-18.4
			c-0.6-0.3-0.9-1-0.7-1.7c0.2-0.7,0.8-1.1,1.5-1.1h106.6c0.8,0,1.5,0.7,1.5,1.5v38.4C237.7,442.3,237.1,442.9,236.2,442.9z
			 M133.6,439.9h101.1v-35.3H133.3c2.9,4,5,10.9,5.2,18.1C138.7,427.1,138.1,434.7,133.6,439.9z"/>
	</g>
</g>
<g id="Layer_7">
	<g>
		<g>
			<path class="st0" d="M229.6,395.7H127.8c-4.7,0-8.5,3.8-8.5,8.5v1.6h86.5c11.4,0,20.6,7.5,20.6,16.6c0,4.6-2.3,8.8-6,11.8
				c-3.7,3-8.9,4.9-14.6,4.9h-86.4c0.5,4.6,4.3,8.2,9,8.2h101.3c13.6,0,24.6-11,24.6-24.6v-2.5C254.2,406.7,243.2,395.7,229.6,395.7
				z"/>
			<path d="M229.6,448.7H128.3c-5.4,0-9.9-4-10.4-9.4c0-0.4,0.1-0.8,0.3-1.1c0.3-0.3,0.6-0.5,1-0.5h86.4c5.2,0,10.1-1.6,13.7-4.6
				c3.6-2.9,5.5-6.7,5.5-10.7c0-8.4-8.6-15.3-19.2-15.3h-86.5c-0.8,0-1.4-0.6-1.4-1.4v-1.6c0-5.5,4.4-9.9,9.9-9.9h101.8
				c14.3,0,25.9,11.6,25.9,25.9v2.5C255.5,437.1,243.9,448.7,229.6,448.7z M121,440.6c1,3.2,3.9,5.4,7.4,5.4h101.3
				c12.8,0,23.2-10.4,23.2-23.2v-2.5c0-12.8-10.4-23.2-23.2-23.2H127.8c-3.9,0-7.1,3.2-7.1,7.1v0.3h85.1c12.1,0,22,8.1,22,18
				c0,4.9-2.3,9.4-6.5,12.9c-4.1,3.3-9.6,5.2-15.4,5.2H121z"/>
		</g>
	</g>
</g>
<g id="Layer_8_copy">
	<g>
		<path class="st0" d="M243.8,454.9c-7.2,4.1-12.3,30.3,0,38.4H137.2v-38.4H243.8"/>
		<path d="M243.8,494.8H137.2c-0.8,0-1.5-0.7-1.5-1.5v-38.4c0-0.8,0.7-1.5,1.5-1.5h106.6c0.7,0,1.3,0.5,1.5,1.1
			c0.2,0.7-0.1,1.4-0.7,1.7c-3,1.7-6.4,9.5-6.7,18.4c-0.2,8.1,2.2,14.4,6.7,17.4c0.6,0.4,0.8,1.1,0.6,1.7
			C245.1,494.4,244.5,494.8,243.8,494.8z M138.7,491.8h101.1c-4.5-5.2-5-12.7-4.9-17.2c0.2-7.2,2.3-14.1,5.2-18.1H138.7V491.8z"/>
	</g>
</g>
<g id="Layer_7_copy">
	<g>
		<g>
			<path class="st0" d="M143.8,447.6h101.8c4.7,0,8.5,3.8,8.5,8.5v1.6h-86.5c-11.4,0-20.6,7.5-20.6,16.6c0,4.6,2.3,8.8,6,11.8
				c3.7,3,8.9,4.9,14.6,4.9h86.4c-0.5,4.6-4.3,8.2-9,8.2H143.8c-13.6,0-24.6-11-24.6-24.6v-2.5C119.2,458.6,130.2,447.6,143.8,447.6
				z"/>
			<path d="M245.1,500.6H143.8c-14.3,0-25.9-11.6-25.9-25.9v-2.5c0-14.3,11.6-25.9,25.9-25.9h101.8c5.5,0,9.9,4.4,9.9,9.9v1.6
				c0,0.8-0.6,1.4-1.4,1.4h-86.5c-10.6,0-19.2,6.8-19.2,15.3c0,4,2,7.8,5.5,10.7c3.6,2.9,8.5,4.6,13.7,4.6h86.4c0.4,0,0.8,0.2,1,0.5
				c0.3,0.3,0.4,0.7,0.3,1.1C254.9,496.6,250.5,500.6,245.1,500.6z M143.8,449c-12.8,0-23.2,10.4-23.2,23.2v2.5
				c0,12.8,10.4,23.2,23.2,23.2h101.3c3.4,0,6.4-2.2,7.4-5.4h-84.7c-5.8,0-11.3-1.8-15.4-5.2c-4.2-3.4-6.5-8-6.5-12.9
				c0-9.9,9.9-18,22-18h85.1v-0.3c0-3.9-3.2-7.1-7.1-7.1H143.8z"/>
		</g>
	</g>
</g>
<g id="Layer_12">
	<g>
		<path class="st0" d="M593.4,499.1H396.5V485c0-4.3,3.5-7.8,7.8-7.8h189.1V499.1z"/>
		<path d="M593.4,500.4H396.5c-0.7,0-1.3-0.6-1.3-1.3v-12c0-6.1,5-11.1,11.1-11.1h187.1c0.7,0,1.3,0.6,1.3,1.3v21.9
			C594.7,499.8,594.1,500.4,593.4,500.4z M397.8,497.8h194.4v-19.3H406.3c-4.7,0-8.6,3.8-8.6,8.6V497.8z"/>
	</g>
</g>
<g id="Layer_11">
	<g>
		<path class="st0" d="M490.7,383.7c0,0-16.1-0.6-21.5,15.7c-7,21.3-29.6,74.8-29.6,74.8s-5.8,12.5,19.2,12.2
			c25-0.4,131.6,0,131.6,0s12.9,2.9,19.7-14.7c6.8-17.5,28.2-70.1,28.2-70.1s5-18.4-11.4-18.5S490.7,383.7,490.7,383.7z"/>
		<path d="M592.4,487.8c-1,0-1.7-0.1-2-0.1c-3.9,0-107.1-0.4-131.5,0c-10.5,0.2-17.1-1.9-19.8-6.1c-2.4-3.8-0.6-7.7-0.6-7.9
			c0.2-0.5,22.6-53.6,29.5-74.6c5.5-16.7,21.7-16.6,22.7-16.6c1.9,0,120-0.7,136.3-0.6c4.9,0,8.5,1.6,10.8,4.6
			c4.5,5.9,2,15.1,1.9,15.5c0,0,0,0.1,0,0.1c-0.2,0.5-21.5,52.8-28.2,70.1C606,486.1,596.6,487.8,592.4,487.8z M503.1,484.9
			c38.9,0,86.7,0.2,87.4,0.2c0.1,0,0.2,0,0.3,0c0.5,0.1,12,2.3,18.2-13.9c6.6-17,27.3-67.7,28.2-70c0.2-0.8,2-8.6-1.5-13.3
			c-1.8-2.3-4.7-3.5-8.8-3.6c-16.2-0.1-135.1,0.6-136.3,0.6c0,0,0,0-0.1,0c-0.6,0-15.2-0.4-20.2,14.9c-6.9,21.1-29.4,74.3-29.6,74.9
			c-0.1,0.2-1.3,2.9,0.4,5.5c1.5,2.3,5.8,5.1,17.6,4.9C467,485,484,484.9,503.1,484.9z"/>
	</g>
</g>
<g id="Layer_14">
	<g>
		<path class="st0" d="M384.9,255.3c0,0,1-13,19.2-12.4"/>
		<path d="M384.9,256.6c0,0-0.1,0-0.1,0c-0.7-0.1-1.2-0.7-1.2-1.4c0-0.1,1.3-14.2,20.5-13.5c0.7,0,1.2,0.6,1.2,1.3
			c0,0.7-0.6,1.3-1.3,1.2c-16.7-0.6-17.9,10.7-17.9,11.2C386.1,256.1,385.6,256.6,384.9,256.6z"/>
	</g>
	<g>
		<path class="st0" d="M427.5,238.1c0,0-16,2.6-15.6,11s1.5,15.4,7.8,16.1c6.1,0.7,7,4.9,5.8,7.7"/>
		<path d="M425.5,274.2c-0.2,0-0.3,0-0.5-0.1c-0.6-0.3-0.9-1-0.7-1.7c0.5-1.2,0.5-2.6-0.1-3.6c-0.8-1.3-2.4-2.1-4.6-2.4
			c-7.5-0.8-8.6-9.4-8.9-17.3c-0.5-9.4,16-12.2,16.7-12.3c0.7-0.1,1.3,0.4,1.5,1c0.1,0.7-0.4,1.3-1,1.5c-4.1,0.7-14.9,3.7-14.6,9.7
			c0.4,8.8,1.7,14.4,6.7,14.9c3.9,0.4,5.7,2.2,6.5,3.6c1,1.7,1.1,3.9,0.3,5.9C426.4,274,426,274.2,425.5,274.2z"/>
	</g>
	<g>
		<path class="st0" d="M404.2,276.6c0,0,5.3,10.6,18.4,4.2"/>
		<path d="M414.7,284.1c-8.1,0-11.6-6.9-11.7-6.9c-0.3-0.6-0.1-1.4,0.6-1.7c0.6-0.3,1.4-0.1,1.7,0.6c0.2,0.4,4.9,9.4,16.8,3.6
			c0.6-0.3,1.4,0,1.7,0.6c0.3,0.6,0,1.4-0.6,1.7C419.9,283.5,417.1,284.1,414.7,284.1z"/>
	</g>
</g>
<g id="Layer_16">
	<g>
		<path class="st0" d="M573.3,173.9c-1.9,9.8-4.2,16.1-1.9,19.4s6.2,13.3,6.2,13.3s-3.4-27.8,5.3-32.7"/>
		<path d="M577.6,207.8c-0.5,0-1-0.3-1.2-0.8c0-0.1-3.8-9.9-6-13c-2.1-3-1.1-7.5,0.4-14.2c0.4-1.8,0.9-3.9,1.3-6.2
			c0.1-0.7,0.8-1.1,1.5-1c0.7,0.1,1.1,0.8,1,1.5c-0.4,2.3-0.9,4.4-1.3,6.2c-1.3,5.9-2.3,10.1-0.8,12.2c1,1.4,2.2,3.8,3.3,6.3
			c-0.1-2.1-0.1-4.4,0-6.8c0.3-10.5,2.5-17,6.6-19.2c0.6-0.3,1.4-0.1,1.7,0.5c0.3,0.6,0.1,1.4-0.5,1.7c-6.5,3.7-5.6,23.9-4.7,31.4
			c0.1,0.6-0.3,1.2-1,1.4C577.8,207.8,577.7,207.8,577.6,207.8z"/>
	</g>
	<g>
		<path class="st0" d="M592.9,173.9c0,0-8.3,14.9-5.9,28"/>
		<path d="M586.9,203.2c-0.6,0-1.1-0.4-1.2-1c-2.4-13.4,5.7-28.2,6.1-28.9c0.3-0.6,1.1-0.8,1.7-0.5c0.6,0.3,0.8,1.1,0.5,1.7
			c-0.1,0.1-8,14.6-5.8,27.2c0.1,0.7-0.3,1.3-1,1.5C587.1,203.2,587,203.2,586.9,203.2z"/>
	</g>
	<g>
		<path class="st0" d="M604.9,172.9c0,0-9.7,17.2-9.1,24.8c0.6,7.6,0,8.9,0,8.9"/>
		<path d="M595.8,207.8c-0.2,0-0.4,0-0.6-0.1c-0.6-0.3-0.9-1.1-0.5-1.7c0,0,0,0,0,0c0,0,0.4-1.6-0.1-8.2c-0.7-7.9,8.9-24.8,9.3-25.5
			c0.3-0.6,1.1-0.8,1.7-0.5c0.6,0.3,0.8,1.1,0.5,1.7c-0.1,0.2-9.5,16.9-8.9,24.1c0.6,7.2,0.1,9.1-0.2,9.6
			C596.7,207.6,596.3,207.8,595.8,207.8z"/>
	</g>
</g>
<g id="Layer_15">
	<g>
		<path class="st0" d="M564.1,221.5c0,0,11.5-24.1,18.8-27.5c7.2-3.4,7.4,5.3,4,11.7c-3.4,6.4-6,7-1.6,11.2
			c4.4,4.2,11.3,12,6.9,29.9"/>
		<path d="M592.2,248.2c-0.1,0-0.2,0-0.3,0c-0.7-0.2-1.1-0.9-0.9-1.5c4.4-18.1-3-25.3-6.6-28.7c-3.9-3.8-3-5.7-0.8-9.2
			c0.6-1,1.4-2.1,2.1-3.6c2.3-4.3,2.5-8.8,1.2-10.1c-0.8-0.9-2.4-0.4-3.6,0.2c-5.6,2.6-15,20.3-18.2,26.9c-0.3,0.6-1.1,0.9-1.7,0.6
			c-0.6-0.3-0.9-1.1-0.6-1.7c0.5-1,11.8-24.5,19.4-28.1c3.5-1.6,5.4-0.7,6.5,0.4c2.6,2.7,1.5,8.7-0.8,13c-0.8,1.5-1.6,2.8-2.2,3.8
			c-2,3.1-2.2,3.5,0.4,6c3.6,3.5,12,11.7,7.3,31.1C593.3,247.8,592.8,248.2,592.2,248.2z"/>
	</g>
</g>
<g id="Layer_18">
	<g>
		<ellipse transform="matrix(0.9385 -0.3453 0.3453 0.9385 -63.6183 153.9669)" cx="400.3" cy="255.5" rx="3.8" ry="5.3"/>
	</g>
	<g>
		<ellipse transform="matrix(0.9385 -0.3453 0.3453 0.9385 -60.4629 161.3464)" cx="422.6" cy="250.4" rx="3.8" ry="5.3"/>
	</g>
	<g>
		<path d="M573.7,93.6h1.5c0.1,1.8,1.7,3.2,3.5,3.2s3.3-1.4,3.5-3.2c0-0.4,0.3-0.7,0.7-0.7s0.7,0.3,0.7,0.7c0.1,1.8,1.7,3.2,3.5,3.2
			c1.8,0,3.3-1.4,3.5-3.2h1.4v1.7c0,1.4-0.5,2.7-1.4,3.8c-0.4,0.5-0.8,1-1.1,1.6l-0.9,1.8c-1.1,2.1-3.3,3.5-5.7,3.5
			c-2.4,0-4.6-1.3-5.7-3.5l-0.9-1.8c-0.3-0.6-0.7-1.1-1.1-1.6c-0.9-1.1-1.4-2.4-1.4-3.8V93.6z M578.6,94c0.6,0,1.1-0.5,1.1-1.1
			c0-0.2,0-0.3-0.1-0.5c0.2,0,0.4-0.2,0.5-0.4c0.4,0.4,0.7,0.9,0.7,1.5c0,1.1-0.9,2.1-2.1,2.1c-1.1,0-2.1-0.9-2.1-2.1
			c0-0.5,0.2-1,0.6-1.4c0.1,0.2,0.3,0.2,0.5,0.3c-0.1,0.1-0.1,0.3-0.1,0.5c0,0.3,0.1,0.6,0.3,0.8C577.9,94,578.2,94.1,578.6,94
			L578.6,94z M586.9,94c0.6,0,1.1-0.5,1.1-1.1c0-0.2-0.1-0.3-0.2-0.5c0.2,0,0.4-0.1,0.5-0.3c0.4,0.4,0.6,0.9,0.6,1.5
			c0,1.1-0.9,2.1-2.1,2.1c-1.1,0-2.1-0.9-2.1-2.1c0-0.6,0.2-1.1,0.6-1.5c0.1,0.2,0.3,0.3,0.5,0.3c-0.1,0.1-0.1,0.3-0.1,0.5
			c0,0.3,0.1,0.6,0.3,0.8C586.3,94,586.6,94.1,586.9,94L586.9,94z M573.7,91.7v-0.4c0-0.1,0-0.2,0-0.3v-2.4c0,0,0.2-3,2.7-3
			c2.1,0.9,4.3,1.5,6.5,1.8c2,0,4-0.6,5.7-1.8c0.9,0,1.7,0.3,2.3,1c0.6,0.6,0.9,1.5,0.8,2.4v3.2h-1.7c-0.5-1.2-1.7-2-3-2.1
			c-1.3-0.1-2.5,0.6-3.2,1.8c-0.7-0.5-1.6-0.5-2.3,0c-0.6-1.1-1.9-1.8-3.2-1.8c-1.3,0.1-2.5,0.9-3,2.1h-1.8L573.7,91.7z M571,87.3
			c0,0.8,0.2,1.6,0.4,2.4v5.5c0,1.9,0.7,3.8,2,5.3c0.3,0.4,0.6,0.7,0.8,1.2l0.9,1.8c1.5,2.9,4.4,4.7,7.7,4.7s6.2-1.8,7.7-4.7
			l0.9-1.8c0.2-0.4,0.5-0.8,0.8-1.2c1.3-1.5,2-3.3,2-5.3v-4.9c0-0.1,0-0.2,0-0.3c0.2-1.2,0.2-2.4,0-3.6c0-0.4-0.1-0.9-0.2-1.3v-0.6
			c0,0.2,0.1,0.4,0.2,0.5c0,0.2,0.2,0.5,0.3,0.8c0.1,0.3,0,0,0-0.1c-0.1-0.6-0.3-1.2-0.5-1.7c0-0.6-0.1-1.2-0.2-1.7
			c0,0,0-0.2-0.1-0.3c0-0.1,0-0.1,0-0.2c-0.1-0.4-0.3-0.7-0.5-1c-0.2-0.3-0.4-0.5-0.7-0.8c-0.1-0.1-0.2-0.2-0.3-0.3
			c-0.3-0.5-0.7-1-1.2-1.4c-0.3-0.2-0.6-0.4-1-0.6l-1.2-0.5l-0.3-0.1c1.2,0.1,2.3,0.4,3.3,0.9l0.6,0.3l-0.2-0.1
			c-0.2-0.1-0.4-0.3-0.7-0.4c-1.1-0.6-2.3-1-3.6-1.1c-0.6,0-1.2-0.1-1.7-0.3c-0.2-0.1-0.4-0.1-0.6-0.2h-0.2l-0.7-0.2h2.6
			c-1.1-0.2-2.3-0.3-3.4-0.2c-0.4,0-0.8,0-1.2,0h-0.5l2.6-0.5c-0.9,0-1.8,0.1-2.6,0.2c-0.5,0-0.9,0.2-1.4,0.3
			c-0.5,0.1-1.4,0.1-2,0.2c1.4-0.6,2.8-1,4.3-1.1h-0.9c-1,0-2.1,0.2-3.1,0.5c-0.8,0.2-1.6,0.5-2.3,1.1c-0.1,0.1-0.3,0.2-0.4,0.3
			l0.9-0.7c0.4-0.2,0.7-0.4,1-0.6l1-0.4c-0.7,0.2-1.3,0.4-2,0.8c-1,0.5-2,1.2-2.8,2l-0.6,0.5l-0.2,0.3c0,0.2-0.2,0.4-0.3,0.5
			c-0.1,0.1-0.1,0.1-0.2,0.2c-0.2,0-0.5,0.1-0.7,0.2c-0.2,0.1-0.4,0.2-0.6,0.4c-0.5,0.4-0.9,1.1-1,1.7c0.2-0.5,0.5-0.9,0.9-1.2
			c-0.1,0.4-0.2,0.7-0.3,1.1c0,0.1-0.1,0.3-0.2,0.4c-0.2,0.4-0.4,0.7-0.5,1.1c0.2-0.3,0.4-0.6,0.5-0.9c0,0.1,0,0.1,0,0.2
			C571.2,83.9,571,85.6,571,87.3L571,87.3z"/>
	</g>
	<g>
		<path d="M625.4,131.5h-17.9c-0.2-3.2-0.3-9.7-0.4-10.1c0.1-2.6-1.1-5-3.1-6.6c-4-2.6-8.5-3.3-12.7-4.7l-5.9,15.8l-1-10.5v-0.3
			l1.4-1.5c0,0,0-0.1,0-0.1c0-0.1,0-0.2,0-0.3c0-1-0.8-1.8-1.8-1.8h-2.2c-0.5,0-1.1,0.2-1.4,0.7c-0.4,0.4-0.5,1-0.4,1.5
			c0,0,0,0.1,0,0.1l1.5,1.6l-1.2,10.7l-5.9-16c-3.8,1.3-7.5,2.5-11.1,3.9c-2.5,1-4.2,3.3-4.6,5.9c-0.1,0.5-0.4,8-0.6,11.9h-16.8
			V66.8h84.3L625.4,131.5z M624.4,62.9h-83.2c-2.2,0-4,1.8-4,4v64.7c0,1,0.4,2.1,1.2,2.8c0.7,0.7,1.8,1.2,2.8,1.2h83.3
			c1,0,2.1-0.4,2.8-1.2c0.7-0.7,1.2-1.8,1.2-2.8V66.8c0-1.1-0.4-2.1-1.2-2.8C626.4,63.3,625.4,62.9,624.4,62.9L624.4,62.9z"/>
	</g>
	<g>
		<path d="M576.4,159.3c-2.4,0-4.3-2-4.3-4.4V147c-0.1-1.2,0.3-2.4,1.2-3.3c0.8-0.9,2-1.4,3.2-1.4c1.2,0,2.4,0.5,3.2,1.4
			c0.8,0.9,1.2,2.1,1.2,3.3v7.9c0,1.2-0.5,2.3-1.3,3.1C578.6,158.8,577.5,159.3,576.4,159.3L576.4,159.3z"/>
	</g>
	<g>
		<path d="M569.2,154.9V147v-0.4h-28.9c-2.3,0.2-4.1,2.1-4.1,4.3s1.8,4.2,4.1,4.3h28.9C569.2,155.2,569.2,155,569.2,154.9
			L569.2,154.9z"/>
	</g>
	<g>
		<path d="M622.6,146.7h-39.5v0.4v7.9v0.4h39.5c2.3-0.2,4.1-2.1,4.1-4.3S624.9,146.8,622.6,146.7L622.6,146.7z"/>
	</g>
	<g>
		<path d="M524.3,169.5h116.9V52.6H524.3V169.5z M641.2,173.5H524.3c-2.2,0-4-1.8-4-4V52.6c0-2.2,1.8-4,4-4h116.9
			c1,0,2.1,0.4,2.8,1.2c0.7,0.7,1.2,1.8,1.2,2.8v116.9c0,1-0.4,2.1-1.2,2.8C643.3,173.1,642.2,173.5,641.2,173.5L641.2,173.5z"/>
	</g>
</g>
</svg>
